<svg xmlns="http://www.w3.org/2000/svg" viewBox="0 0 1024 1024" role="img" aria-labelledby="title">
  <title id="title">YsCL clipboard history icon</title>
  <defs>
    <linearGradient id="frame" x1="0" y1="0" x2="1" y2="1">
      <stop offset="0" stop-color="#25e7ff"/>
      <stop offset="1" stop-color="#008ba6"/>
    </linearGradient>
    <filter id="glow" x="-30%" y="-30%" width="160%" height="160%">
      <feGaussianBlur stdDeviation="22" result="blur"/>
      <feMerge><feMergeNode in="blur"/><feMergeNode in="SourceGraphic"/></feMerge>
    </filter>
  </defs>
  <rect x="46" y="46" width="932" height="932" rx="230" fill="#070b0d" stroke="url(#frame)" stroke-width="30"/>
  <rect x="82" y="82" width="860" height="860" rx="200" fill="none" stroke="#08738a" stroke-width="13"/>
  <g filter="url(#glow)">
    <rect x="464" y="260" width="320" height="430" rx="64" fill="#087f96" opacity=".72"/>
    <rect x="366" y="302" width="340" height="448" rx="68" fill="#08a7c3" opacity=".82"/>
    <rect x="258" y="350" width="360" height="470" rx="72" fill="#051418" stroke="#16daf4" stroke-width="30"/>
    <path d="M375 350v-35c0-35 28-63 63-63h4c35 0 63 28 63 63v35" fill="none" stroke="#16daf4" stroke-width="30" stroke-linecap="round"/>
    <path d="M347 493h182M347 586h182M347 679h182" stroke="#16daf4" stroke-width="27" stroke-linecap="round"/>
    <path d="M328 846h220" stroke="#16daf4" stroke-width="27" stroke-linecap="round"/>
  </g>
</svg>
